Coordinates
version=1
nRows=8
nColumns=36
inDegrees=yes

Units are S.I. units (second, meters, Newtons, ...)
If the header above contains a line with 'inDegrees', this indicates whether rotational values are in degrees (yes) or radians (no).

endheader
time	pelvis_tilt	pelvis_list	pelvis_rotation	pelvis_tx	pelvis_ty	pelvis_tz	hip_flexion_r	hip_adduction_r	hip_rotation_r	knee_angle_r	knee_angle_r_beta	ankle_angle_r	subtalar_angle_r	mtp_angle_r	hip_flexion_l	hip_adduction_l	hip_rotation_l	knee_angle_l	knee_angle_l_beta	ankle_angle_l	subtalar_angle_l	mtp_angle_l	lumbar_extension	lumbar_bending	lumbar_rotation	arm_flex_r	arm_add_r	arm_rot_r	elbow_flex_r	pro_sup_r	arm_flex_l	arm_add_l	arm_rot_l	elbow_flex_l	pro_sup_l
      1.75000000	    -12.33827185	     -1.44153574	      0.02133352	     -0.35109692	      0.76200793	     -0.59783564	     76.78043178	    -11.34504996	      3.53146934	     94.25656993	      1.64508749	     27.64509046	    -10.74259996	     -7.49889656	     77.70038831	    -15.69772454	      2.26112119	     93.89794294	      1.63882827	     30.21467068	     -6.76172167	     -7.49889656	    -36.95453399	      1.48253076	      4.49498073	     29.20979863	    -28.19291928	      1.54828046	     97.34937195	     89.57850469	     38.14821916	    -24.19548764	     16.20189902	    101.66377388	     83.28862831
      1.76000000	    -12.97374146	     -1.13156043	      0.11348997	     -0.34635694	      0.75427432	     -0.60198858	     78.28369875	    -11.71875792	      4.09995331	     95.60958863	      1.66870212	     27.91347202	    -10.87518745	     -7.49892086	     78.96820618	    -15.56884177	      2.13142084	     95.30333247	      1.66335694	     31.13876799	     -6.60914706	     -7.49892086	    -37.66310570	      1.65484672	      5.39598704	     34.47892655	    -29.12599088	      2.85693144	     98.98013512	     89.39172562	     42.20259387	    -22.19212496	     17.83106350	    102.15962425	     83.47630551
      1.77000000	    -13.58703337	     -0.91747369	      0.22616069	     -0.34524741	      0.74824430	     -0.60565666	     79.50870052	    -12.08117228	      4.53082663	     96.59699340	      1.68593558	     28.01951008	    -11.08494169	     -7.49898871	     80.05071825	    -15.39071524	      2.06572108	     96.40121339	      1.68251858	     31.87250413	     -6.47649720	     -7.49898871	    -38.46317750	      1.84044469	      6.96172151	     39.44095265	    -30.37379508	      3.55201675	    100.56131240	     88.16136432	     46.96315106	    -19.57986950	     20.13079443	    101.70563138	     84.20065759
      1.78000000	    -14.80003021	     -0.60933854	      0.46388813	     -0.35076035	      0.74143426	     -0.60469553	     81.45116293	    -12.49503978	      5.04259321	     97.56130610	      1.70276601	     28.06487592	    -11.27531254	     -7.49900487	     81.80157440	    -15.10622964	      1.87859689	     97.31242231	      1.69842217	     32.36333376	     -6.31601904	     -7.49900487	    -38.71690958	      1.95740306	      7.92360399	     45.49432356	    -31.26158919	      5.41425543	    102.11165466	     87.92053005	     51.66151107	    -17.31921607	     21.65488735	    101.83472414	     84.44529954
      1.79000000	    -15.92788259	     -0.58926519	      0.73781310	     -0.35889258	      0.73390969	     -0.59848814	     83.30284684	    -12.65057074	      5.25361292	     98.54206221	      1.71988344	     28.27100222	    -11.50451692	     -7.49917348	     83.73198653	    -14.98646859	      2.00480286	     98.20649108	      1.71402662	     32.71300549	     -6.05935982	     -7.49917348	    -38.87481580	      2.09061653	      9.24347238	     51.88614794	    -32.06452484	      7.56814194	    103.27439669	     82.67603835	     57.29028437	    -14.76279883	     23.69606984	    101.10454949	     85.06180489
      1.80000000	    -17.36047872	     -0.41619512	      1.02906761	     -0.36353468	      0.72568724	     -0.59191708	     85.57583578	    -12.72648770	      5.64425646	     99.55826077	      1.73761945	     28.55143910	    -11.67533610	     -7.49915127	     85.91141435	    -14.86549712	      1.94866830	     98.97603873	      1.72745776	     32.93518312	     -5.77786783	     -7.49915127	    -38.47239671	      2.00591142	      9.94645440	     57.90887903	    -32.12246503	      9.63925028	    104.29721581	     83.17150741	     62.25249222	    -12.72465968	     25.14608325	    100.78815223	     85.81639416
      1.81000000	    -18.57377965	     -0.31265253	      1.30096643	     -0.36386992	      0.71943243	     -0.58918492	     87.46545022	    -12.73080027	      5.94198125	    100.38008886	      1.75196305	     28.87044468	    -11.81638946	     -7.49915501	     87.71819327	    -14.76391077	      1.92965668	     99.55276007	      1.73752344	     33.11543431	     -5.38538988	     -7.49915501	    -38.11583706	      1.97696482	     10.48606584	     63.32292116	    -31.98721302	     11.63119017	    104.88088378	     83.04413602	     66.56297127	    -11.01761520	     26.45331403	    100.54429220	     86.11403018
      1.82000000	    -19.64324703	     -0.23687438	      1.55251619	     -0.36216156	      0.71510582	     -0.58830732	     89.02095716	    -12.67265857	      6.20152358	    100.98474924	      1.76251637	     29.10549296	    -11.96550054	     -7.49918234	     89.19178186	    -14.67358489	      1.90253115	     99.91517660	      1.74384880	     33.15170904	     -5.09226344	     -7.49918234	    -37.78407876	      1.97910500	     10.88209887	     68.10030995	    -31.65673206	     13.43844000	    105.31045364	     82.53416556	     70.23267037	     -9.54963750	     27.45966584	    100.28558102	     86.12222630
